<svg width="512" height="512" viewBox="0 0 512 512" fill="none" xmlns="http://www.w3.org/2000/svg">
  <rect width="512" height="512" rx="64" fill="#10b981"/>
  <g transform="translate(96, 96)">
    <path d="M160 60C200.4 60 232 91.6 232 132V140H248C256.8 140 264 147.2 264 156V316C264 324.8 256.8 332 248 332H88C79.2 332 72 324.8 72 316V156C72 147.2 79.2 140 88 140H104V132C104 91.6 135.6 60 160 60ZM160 84C149.0 84 140 93.0 140 104V140H180V104C180 93.0 171.0 84 160 84ZM160 180C141.2 180 124 197.2 124 216S141.2 252 160 252S196 234.8 196 216S178.8 180 160 180Z" fill="white"/>
    <circle cx="120" cy="260" r="16" fill="white"/>
    <circle cx="160" cy="260" r="16" fill="white"/>
    <circle cx="200" cy="260" r="16" fill="white"/>
  </g>
</svg>